<?xml version="1.0" standalone="no"?><!DOCTYPE svg PUBLIC "-//W3C//DTD SVG 1.1//EN" "http://www.w3.org/Graphics/SVG/1.1/DTD/svg11.dtd"><svg t="1552901600136" class="icon" style="" viewBox="0 0 1024 1024" version="1.1" xmlns="http://www.w3.org/2000/svg" p-id="7731" xmlns:xlink="http://www.w3.org/1999/xlink" width="200" height="200"><defs><style type="text/css"></style></defs><path d="M370.319528 517.763087h-292.728247c-42.372414 0-76.841165-34.468751-76.841165-76.841165v-292.728247c0-42.372414 34.43216-76.841165 76.841165-76.841165h292.728247c42.372414 0 76.841165 34.468751 76.841165 76.841165v292.728247a76.950938 76.950938 0 0 1-76.841165 76.841165z m-289.105735-80.500268H366.660425v-285.410041H81.213793v285.410041zM874.360979 1021.804538h-292.728247c-42.372414 0-76.841165-34.468751-76.841165-76.841165v-292.728247c0-42.372414 34.43216-76.841165 76.841165-76.841165h292.728247c42.372414 0 76.841165 34.468751 76.841165 76.841165v292.728247c0 42.372414-34.468751 76.841165-76.841165 76.841165z m-289.069144-80.500268h285.446632v-285.410041h-285.446632v285.410041zM370.319528 1023.963409h-292.728247c-42.372414 0-76.841165-34.468751-76.841165-76.841165v-292.728247c0-42.372414 34.43216-76.841165 76.841165-76.841165h292.728247c42.372414 0 76.841165 34.468751 76.841165 76.841165v292.728247a76.950938 76.950938 0 0 1-76.841165 76.841165z m-289.105735-80.500268H366.660425v-285.410041H81.213793v285.410041zM748.37806 549.08501c-20.198249 0-39.152403-7.830481-53.386314-22.100983l-199.421119-199.421118a75.011613 75.011613 0 0 1-22.100983-53.422905c0-20.161658 7.903663-39.115812 22.174165-53.386315L694.955155 21.369162c28.504413-28.467822 78.268215-28.577595 106.809219 0l199.384527 199.384527c14.233911 14.233911 22.100983 33.188065 22.100983 53.349724a75.011613 75.011613 0 0 1-22.137574 53.422905L801.764374 526.910845c-14.270502 14.343684-33.261247 22.174165-53.386314 22.174165z m-192.35905-274.908415l192.322459 192.322458 192.359049-192.322458-192.322458-192.322459-192.35905 192.322459z" fill="" p-id="7732"></path></svg>