<?xml version="1.0" standalone="no"?><!DOCTYPE svg PUBLIC "-//W3C//DTD SVG 1.1//EN" "http://www.w3.org/Graphics/SVG/1.1/DTD/svg11.dtd"><svg t="1555490647887" class="icon" style="" viewBox="0 0 1024 1024" version="1.1" xmlns="http://www.w3.org/2000/svg" p-id="11879" xmlns:xlink="http://www.w3.org/1999/xlink" width="200" height="200"><defs><style type="text/css"></style></defs><path d="M512 32L156 188v334.4c0 148.8 75.2 287.2 199.2 368L512 992l156-101.6c124.8-80.8 199.2-219.2 199.2-368V188L512 32z" fill="#D6AB7F" p-id="11880"></path><path d="M388.8 839.2c-108-70.4-172-188.8-172-316.8V228L512 98.4l295.2 129.6v295.2c0 128.8-64 247.2-172 316.8L512 920l-123.2-80.8z" fill="#82CFCD" p-id="11881"></path><path d="M512 32L156 188v334.4c0 148.8 75.2 287.2 199.2 368L512 992V32z" fill="#FFFFFF" p-id="11882"></path><path d="M512 1000c-1.6 0-3.2-0.8-4-1.6L352 896.8c-128-82.4-204-222.4-204-374.4V188c0-3.2 1.6-6.4 4.8-7.2L508.8 24.8c2.4-0.8 4-0.8 6.4 0l356 156c3.2 1.6 4.8 4 4.8 7.2v334.4c0 152-76 292-203.2 374.4l-156 101.6c-1.6 0.8-3.2 1.6-4.8 1.6zM164 193.6v329.6c0 146.4 73.6 281.6 196 360.8l152 98.4 152-98.4c122.4-80 196-215.2 196-360.8V193.6L512 40.8 164 193.6z" fill="#6A576D" p-id="11883"></path><path d="M512 927.2c-1.6 0-3.2-0.8-4-1.6l-123.2-80c-109.6-71.2-175.2-192.8-175.2-324V228c0-3.2 1.6-6.4 4.8-7.2l295.2-129.6c2.4-0.8 4-0.8 6.4 0l295.2 129.6c3.2 1.6 4.8 4 4.8 7.2v295.2c0 131.2-65.6 252-175.2 324l-123.2 80H512zM224.8 232.8v289.6c0 125.6 63.2 241.6 168 310.4l118.4 76.8 118.4-76.8c105.6-68.8 168-184.8 168-310.4V232.8L512 107.2 224.8 232.8z" fill="#6A576D" p-id="11884"></path><path d="M1087.99999991 519.50628393c-0.89524487 0-1.72162476-0.41318993-2.27254468-1.10183984L1077.18819644 507.73037061l4.61395435-3.64984448 6.19784912 7.78174389 10.67407348-13.49753809 4.61395435 3.6498445-12.94661817 16.38986766c-0.61978492 0.68864991-1.44616478 1.10183984-2.34140966 1.10183984z" fill="#FFFFFF" p-id="11885"></path><path d="M1087.99999991 520.19493383c-1.10183984 0-2.1348147-0.48205493-2.8234646-1.3772998L1076.63727652 508.14356053c-0.13772998-0.13772998-0.13772998-0.34432495-0.13772997-0.48205491 0-0.20659497 0.13772998-0.34432495 0.27545997-0.48205494l4.61395433-3.64984448c0.27545996-0.20659497 0.75751489-0.20659497 0.96410986 0.13772998L1087.99999991 510.76043019l10.19201856-12.80888819c0.20659497-0.27545996 0.68864991-0.34432495 0.96410985-0.13772998l4.61395435 3.64984448c0.27545996 0.20659497 0.34432495 0.68864991 0.13772998 0.96410987l-13.08434814 16.38986766c-0.68864991 0.89524487-1.72162476 1.37729979-2.8234646 1.3772998z m-9.8476936-12.39569823l8.12606884 10.19201855c0.41318993 0.55091992 1.10183984 0.8263799 1.72162476 0.82637988v0.68864991-0.68864991c0.68864991 0 1.30843482-0.34432495 1.79048975-0.82637988l12.53342822-15.83894776-3.5121145-2.8234646-10.26088355 12.94661816c-0.13772998 0.13772998-0.34432495 0.27545996-0.55091992 0.27545997-0.20659497 0-0.41318993-0.06886499-0.55091992-0.27545996l-5.78465918-7.29968896-3.5121145 2.82346459z" fill="#6A576D" p-id="11886"></path></svg>