<?xml version="1.0" standalone="no"?><!DOCTYPE svg PUBLIC "-//W3C//DTD SVG 1.1//EN" "http://www.w3.org/Graphics/SVG/1.1/DTD/svg11.dtd"><svg t="1555490803982" class="icon" style="" viewBox="0 0 1024 1024" version="1.1" xmlns="http://www.w3.org/2000/svg" p-id="16347" xmlns:xlink="http://www.w3.org/1999/xlink" width="200" height="200"><defs><style type="text/css"></style></defs><path d="M525.344 498.656m-498.656 0a498.656 498.656 0 1 0 997.312 0 498.656 498.656 0 1 0-997.312 0Z" fill="#20BBC5" p-id="16348"></path><path d="M365.344 313.184h314.88v39.328h-314.88V313.184z m-0.96 79.328h314.88v39.328h-314.88v-39.328z" fill="#FFFFFF" p-id="16349"></path><path d="M286.688 233.952h472.192v314.88h39.328v-314.88c0-21.92-17.76-39.328-39.328-39.328H286.688c-21.888 0-39.328 17.76-39.328 39.328v550.816c0 21.888 17.76 39.328 39.328 39.328h275.552v-39.328H286.688V233.952z" fill="#FFFFFF" p-id="16350"></path><path d="M365.024 549.76v39.328H460.8c0-13.664 1.888-26.976 5.696-39.328h-101.472z m160.8-78.624h-161.376v39.328h119.52a139.84 139.84 0 0 1 41.856-39.328z m298.048 316.768l-90.368-89.12a137.632 137.632 0 1 0-241.952-89.728 137.504 137.504 0 0 0 137.632 137.632c27.552 0 53.248-8.256 74.816-21.888l92.288 91.008a20 20 0 0 0 27.904 0 20.32 20.32 0 0 0-0.32-27.904z m-292.992-179.232a98.368 98.368 0 0 1 98.304-98.24 98.336 98.336 0 0 1 98.24 98.24 98.368 98.368 0 0 1-98.24 98.304 97.92 97.92 0 0 1-98.304-98.304z" fill="#FFFFFF" p-id="16351"></path></svg>