<?xml version="1.0" standalone="no"?><!DOCTYPE svg PUBLIC "-//W3C//DTD SVG 1.1//EN" "http://www.w3.org/Graphics/SVG/1.1/DTD/svg11.dtd"><svg t="1552129236589" class="icon" style="" viewBox="0 0 1025 1024" version="1.1" xmlns="http://www.w3.org/2000/svg" p-id="6694" xmlns:xlink="http://www.w3.org/1999/xlink" width="200.1953125" height="200"><defs><style type="text/css"></style></defs><path d="M410.578899 1015.681922h29.88973a14.53998 14.53998 0 0 0 14.524604-14.463103c0.128128-45.695616 0.445886-184.642883-0.066626-197.055936-0.574014-14.914114 5.888769-31.171011 12.351551-38.72032 5.955395-6.975295 419.65037-489.024064 484.098819-564.163524 2.301181-2.685566 6.585786-0.574014 5.945145 2.88032-18.296697 93.569409-131.772092 673.60032-133.432633 681.923524-1.409409 7.036797-5.955395 9.978619-12.351551 7.933694-6.847167-2.23968-229.831111-71.68-278.724805-86.911872a9.963243 9.963243 0 0 0-12.47968 6.467908l-8.00032 24.19059a9.983744 9.983744 0 0 0 6.52941 12.674435c48.063423 15.098619 259.577337 81.468989 283.132412 88.516036 29.182462 8.697337 59.518078-10.116997 65.724605-43.261182 5.125125-27.332292 144.005766-734.21005 146.05069-746.945985s5.248128-34.753473-6.78054-43.327808c-19.009089-13.504705-36.357638-7.554434-42.497538-3.136577-0.640641 0.445886-1.470911 0.512513-2.178178 0.896897l-3.198078 1.793794S58.954314 585.617297 26.824905 602.960721c-32.129409 17.281922-30.653373 53.757437-3.777217 62.526526 23.934334 7.744064 240.896256 78.209409 289.215936 93.882042a9.947868 9.947868 0 0 0 12.607807-6.462782l7.682563-23.54995c1.727167-5.248128-1.214655-10.947267-6.462783-12.674435l-236.734654-76.159359c-8.446206-2.685566-9.471231-14.206847-1.660541-18.368449L895.953874 189.578378c2.301181-1.214655 4.602362 1.604164 2.88032 3.587588-60.927487 71.023984-442.55968 515.572212-459.646847 535.221942-18.496577 21.31027-28.931331 43.517437-28.931331 71.613373 0.066627 28.095936 0.322883 215.680641 0.322883 215.680641" p-id="6695" fill="#2c2c2c"></path><path d="M440.468629 1018.428989h-32.641922l-0.256257-218.494334c-0.061502-26.814655 9.343103-50.108348 29.571972-73.407168 16.574655-19.075716 381.058178-443.712833 458.175936-533.505025L89.043924 624.578498a7.026547 7.026547 0 0 0-3.777217 7.041922c0.18963 2.301181 1.665666 5.181502 4.991872 6.268028l236.734654 76.164485a12.838438 12.838438 0 0 1 7.487808 6.329529c1.537538 3.075075 1.855295 6.529409 0.768769 9.794115l-7.682563 23.611451a12.787187 12.787187 0 0 1-16.123643 8.195075L22.227668 668.095936c-12.674434-4.094975-20.864384-14.145345-22.079039-26.947908-1.409409-15.867387 8.256577-31.422142 25.343743-40.637117 31.745025-17.092292 923.265666-493.119039 932.285886-497.987908l3.136577-1.727167c0.574014-0.322883 1.086527-0.445886 1.470911-0.579139 7.487808-5.248128 26.240641-11.136897 46.141501 3.008448 13.766086 9.727487 9.794114 34.240961 7.938819 46.018499-1.153153 7.298178-46.715516 239.681602-86.911872 444.732732-30.525245 155.906306-56.960641 290.558719-59.133693 302.274755-3.203203 17.158919-12.612933 31.360641-26.563524 39.873474-12.925566 7.933694-28.090811 9.855616-42.625666 5.499259-22.012412-6.585786-205.374014-64.064064-283.132412-88.510911a12.751311 12.751311 0 0 1-7.549309-6.334655 12.592432 12.592432 0 0 1-0.768769-9.86074l8.00032-24.190591c2.178178-6.590911 9.343103-10.306627 15.934014-8.195075l10.111872 3.136576c64.832833 20.223744 262.145025 81.725245 268.607808 83.780421 2.244805 0.702142 4.1001 0.640641 5.504384-0.194755 1.983423-1.153153 2.885445-3.710591 3.264705-5.694014 1.091652-5.571011 52.353153-267.582783 91.585986-468.15968l41.856897-213.758718c0-0.128128 0.061502-0.512513-0.322883-0.707268-0.451011-0.18963-0.707267 0.066627-0.768769 0.194755C889.106707 278.268669 475.411732 760.317437 469.461461 767.292733c-6.145025 7.164925-12.223423 22.914434-11.71091 36.865025 0.445886 12.674434 0.128128 154.107387 0.061501 197.117437-0.066627 9.476356-7.872192 17.153794-17.343423 17.153794z m-27.137538-5.499259h27.137538a11.716036 11.716036 0 0 0 11.710911-11.710911c0.061502-30.596997 0.445886-184.002242-0.066627-196.932933-0.574014-15.872513 6.273153-32.77005 12.992192-40.637117 6.016897-6.975295 419.645245-489.024064 484.093694-564.163524a6.098899 6.098899 0 0 1 7.36993-1.532412c2.557437 1.214655 3.905345 3.966847 3.387707 6.719039l-41.856896 213.758719c-39.227708 200.576897-90.494334 462.527167-91.647488 468.164804-0.835395 4.412733-2.88032 7.615936-5.888769 9.40973-2.813694 1.660541-6.268028 1.85017-10.045245 0.635516-6.462783-2.044925-203.713473-63.546426-268.607808-83.775296l-10.116997-3.136576a7.185425 7.185425 0 0 0-9.02022 4.674114l-8.005445 24.19059c-0.640641 1.855295-0.445886 3.838719 0.445885 5.571011 0.902022 1.727167 2.434434 3.003323 4.294855 3.582463 60.671231 19.070591 260.479359 81.725245 283.070911 88.449409 13.053694 3.905345 26.558398 2.111552 38.136056-4.93037 12.612933-7.682563 21.120641-20.546627 24.062463-36.162883 2.178178-11.772412 28.608448-146.42995 59.138819-302.331131 40.191231-204.994755 85.697217-437.316677 86.845245-444.548228 1.732292-10.685886 5.243003-32.893053-5.632513-40.637117-17.343423-12.351552-33.277437-7.487808-39.294334-3.136577-0.707267 0.512513-1.409409 0.768769-1.988549 0.896897l-3.649089 1.921922c-9.025345 4.802242-900.540861 480.828989-932.285886 497.982783-18.045566 9.722362-23.421822 24.5801-22.463423 35.265986 0.963524 10.496256 7.744064 18.752833 18.24032 22.14054l289.215936 93.887167a7.298178 7.298178 0 0 0 9.153474-4.674114l7.682562-23.611451a7.339179 7.339179 0 0 0-0.445886-5.565886 7.067548 7.067548 0 0 0-4.223103-3.582463L88.336657 642.946947a12.551431 12.551431 0 0 1-8.830591-10.998519 12.633433 12.633433 0 0 1 6.719039-12.423303l808.257858-432.570811a5.017497 5.017497 0 0 1 6.396156 1.281282 4.955996 4.955996 0 0 1-0.123003 6.529409c-73.858178 86.014975-443.005566 516.033473-459.651972 535.237317-19.583103 22.524925-28.290691 44.02995-28.224064 69.758078l0.451011 213.16933z" p-id="6696" fill="#2c2c2c"></path></svg>