<?xml version="1.0" standalone="no"?><!DOCTYPE svg PUBLIC "-//W3C//DTD SVG 1.1//EN" "http://www.w3.org/Graphics/SVG/1.1/DTD/svg11.dtd"><svg t="1552787497757" class="icon" style="" viewBox="0 0 1024 1024" version="1.1" xmlns="http://www.w3.org/2000/svg" p-id="9129" xmlns:xlink="http://www.w3.org/1999/xlink" width="200" height="200"><defs><style type="text/css"></style></defs><path d="M640 0H153.6a51.2 51.2 0 0 0-51.2 51.2v921.6a51.2 51.2 0 0 0 51.2 51.2h716.8a51.2 51.2 0 0 0 51.2-51.2V281.6L640 0z m0 75.1616L846.464 281.6H640V75.1616zM870.4 972.8H153.6V51.2h435.2v230.4a51.2 51.2 0 0 0 51.2 51.2h230.4v640z" p-id="9130"></path><path d="M440.8832 362.24a25.5232 25.5232 0 0 0 0 36.1984l135.5008 135.5008H332.8a25.6 25.6 0 1 0 0 51.2h247.2192l-139.1616 139.1616a25.5744 25.5744 0 1 0 36.1984 36.1984l181.0176-181.0176a25.5744 25.5744 0 0 0 0-36.1984l-181.0176-181.0176a25.5744 25.5744 0 0 0-36.1728-0.0256z" p-id="9131"></path></svg>