<?xml version="1.0" standalone="no"?><!DOCTYPE svg PUBLIC "-//W3C//DTD SVG 1.1//EN" "http://www.w3.org/Graphics/SVG/1.1/DTD/svg11.dtd"><svg t="1555490351684" class="icon" style="" viewBox="0 0 1024 1024" version="1.1" xmlns="http://www.w3.org/2000/svg" p-id="10905" xmlns:xlink="http://www.w3.org/1999/xlink" width="200" height="200"><defs><style type="text/css"></style></defs><path d="M899.01568 170.797227l-308.9152 0 0-42.73152c0-23.59808-19.13088-42.73152-42.73152-42.73152L461.90592 85.334187c-23.59808 0-42.73152 19.13344-42.73152 42.73152l0 42.73152L126.286507 170.797227c-22.6176 0-40.953173 18.33472-40.953173 40.953173 0 22.61504 18.335573 40.950613 40.953173 40.950613l36.860587 0c-0.026453 0.626347-0.360107 1.150293-0.360107 1.78176l0 427.316053c0 23.59808 19.13088 42.73152 42.73152 42.73152l598.242133 0c23.59808 0 42.73152-19.13344 42.73152-42.73152l0-427.316053c0-0.631467-0.333653-1.155413-0.360107-1.78176l52.882773 0c22.6176 0 40.950613-18.335573 40.950613-40.950613C939.96544 189.131947 921.63328 170.797227 899.01568 170.797227zM803.761493 681.797973 205.518507 681.797973l0-427.316053 598.242133 0L803.76064 681.797973zM770.82112 767.261013 254.481067 767.261013c-22.6176 0-40.953173 18.33216-40.953173 40.950613l0 3.560107c0 0.341333 0.185173 0.620373 0.192853 0.96-0.00768 0.338773-0.192853 0.617813-0.192853 0.96l0 126.275413 85.46304 0L298.990933 852.724053l427.316053 0 0 87.24224 85.46304 0 0-126.275413c0-0.341333-0.185173-0.620373-0.192853-0.96 0.00768-0.338773 0.192853-0.620373 0.192853-0.96l0-3.560107C811.77088 785.593173 793.43872 767.261013 770.82112 767.261013zM440.54016 338.17088l299.121493 0c11.80928 0 21.36576-9.55648 21.36576-21.36576 0-11.80928-9.55648-21.36576-21.36576-21.36576L440.54016 295.43936c-11.80928 0-21.36576 9.55648-21.36576 21.36576C419.1744 328.615253 428.730027 338.17088 440.54016 338.17088zM440.54016 466.366293l299.121493 0c11.80928 0 21.36576-9.55648 21.36576-21.36576 0-11.80928-9.55648-21.36576-21.36576-21.36576L440.54016 423.634773c-11.80928 0-21.36576 9.55648-21.36576 21.36576C419.1744 456.809813 428.730027 466.366293 440.54016 466.366293zM440.54016 594.53952l299.121493 0c11.80928 0 21.36576-9.55648 21.36576-21.36576s-9.55648-21.36576-21.36576-21.36576L440.54016 551.808c-11.80928 0-21.36576 9.55648-21.36576 21.36576S428.730027 594.53952 440.54016 594.53952zM290.9824 594.553173l42.73152 0c23.59808 0 42.73152-19.13088 42.73152-42.73152l0-213.6576c0-23.60064-19.13344-42.73152-42.73152-42.73152l-42.73152 0c-23.60064 0-42.73152 19.13088-42.73152 42.73152l0 213.6576C248.250027 575.422293 267.380907 594.553173 290.9824 594.553173zM290.9824 338.1632l42.73152 0 0 213.6576-42.73152 0L290.9824 338.1632z" fill="#1296db" p-id="10906"></path></svg>