<?xml version="1.0" standalone="no"?><!DOCTYPE svg PUBLIC "-//W3C//DTD SVG 1.1//EN" "http://www.w3.org/Graphics/SVG/1.1/DTD/svg11.dtd"><svg t="1552129334727" class="icon" style="" viewBox="0 0 1408 1024" version="1.1" xmlns="http://www.w3.org/2000/svg" p-id="9079" xmlns:xlink="http://www.w3.org/1999/xlink" width="275" height="200"><defs><style type="text/css"></style></defs><path d="M1402.961002 301.477918c-23.23784-82.48961-120.440027-137.63225-259.016905-160.846475a573.979382 573.979382 0 0 1 55.851111 78.498559c77.223311 22.222366 129.508452 56.67766 141.694149 99.587371 7.084707 24.914555 0.991859 54.127165-17.806232 86.622356-20.356726 35.18738-56.842969 74.649201-107.829247 114.252716 0-2.550495 0.425082-4.982911 0.425082-7.557021C1216.27896 229.237518 987.041443 0 704.243537 0S192.113651 229.237518 192.113651 512.035424a509.390466 509.390466 0 0 0 59.535158 239.486727c-101.287701-20.640114-170.670603-59.700468-184.910865-110.261663-7.084707-24.93817-0.991859-53.985471 17.806232-86.622357 10.24921-17.664537 25.977261-36.746016 44.161343-56.134499a579.222066 579.222066 0 0 1 10.272826-97.580037C35.399922 485.680312-17.475612 577.66343 5.195452 658.499942c25.079864 89.314545 136.75847 146.747907 293.968128 165.97108 93.683448 121.101266 240.006273 199.528978 404.961878 199.528978 251.034801 0 459.466894-180.778119 503.203155-419.272987 144.055718-96.186712 222.530661-207.440234 195.608773-303.178248zM704.149074 960.095939a445.769793 445.769793 0 0 1-314.088697-128.776366c10.957681 0.283388 21.797283 0.566777 33.061968 0.566776 111.277138 0 236.794539-15.680819 366.043219-48.719171 128.540209-32.920274 244.446023-78.923641 340.538271-131.65748-58.708609 179.243099-226.710639 308.586241-425.554761 308.586241z m444.352852-393.626347c-94.014068 59.039229-220.239939 115.10288-375.111644 154.706396-119.826019 30.700399-240.880054 46.735454-350.19709 46.735453-31.621411 0-61.259104 2.692189-89.904938 0.141694-48.719172-71.650008-77.223311-162.830193-77.223311-256.017711 0-247.468831 200.615299-448.060515 448.060515-448.060516S1152.209589 264.566592 1152.209589 512.035424a489.789442 489.789442 0 0 1-3.731279 54.434168z m-668.32407 73.657342a127.949817 127.949817 0 1 1 127.926201-127.949816 128.115126 128.115126 0 0 1-127.926201 127.949816z m0-191.901109a63.974908 63.974908 0 1 0 63.951292 63.951293 63.951293 63.951293 0 0 0-63.951292-63.951293z m271.958303-159.99631a80.08081 80.08081 0 1 1 80.057194-80.08081 80.128041 80.128041 0 0 1-80.057194 80.08081z m0-96.021402a15.964207 15.964207 0 1 0 11.288301 27.228893 15.964207 15.964207 0 0 0-11.288301-27.228893z m176.102212 383.943913a63.974908 63.974908 0 1 1 63.951293-63.974908 63.951293 63.951293 0 0 1-63.951293 63.974908z m0 0" p-id="9080" fill="#2c2c2c"></path></svg>