<?xml version="1.0" standalone="no"?><!DOCTYPE svg PUBLIC "-//W3C//DTD SVG 1.1//EN" "http://www.w3.org/Graphics/SVG/1.1/DTD/svg11.dtd"><svg t="1554881351671" class="icon" style="" viewBox="0 0 1024 1024" version="1.1" xmlns="http://www.w3.org/2000/svg" p-id="1984" xmlns:xlink="http://www.w3.org/1999/xlink" width="200" height="200"><defs><style type="text/css"></style></defs><path d="M914.176 773.792l-252.832 0c-13.248 0-24-10.752-24-24s10.752-24 24-24l252.832 0c13.248 0 24 10.752 24 24S927.424 773.792 914.176 773.792z" p-id="1985" fill="#ffffff"></path><path d="M787.744 900.192c-13.248 0-24-10.752-24-24l0-252.832c0-13.248 10.752-24 24-24s24 10.752 24 24l0 252.832C811.744 889.44 800.992 900.192 787.744 900.192z" p-id="1986" fill="#ffffff"></path><path d="M480.704 977.024c-110.432-0.096-305.504-13.12-371.936-99.328-21.696-28.096-28.096-62.176-18.56-98.624 21.344-81.472 119.936-137.76 271.936-155.968l0-25.824c-48.288-36.96-85.696-100.096-103.552-175.456C249.664 384.32 236.352 283.328 251.904 210.72c21.376-99.808 83.872-155.744 180.736-161.76l4.672-0.288c11.04-0.704 25.696-1.664 40.48-1.728 19.36 0.064 38.4 1.12 51.136 2.016 96.896 6.976 159.328 62.912 180.512 161.728 15.552 72.768 2.208 173.696-6.688 211.136-17.888 75.392-55.296 138.496-103.52 175.456l0 47.392c0 13.248-10.752 24-24 24s-24-10.752-24-24L551.232 584.96c0-8.032 4.032-15.52 10.72-20 42.752-28.416 77.952-86.016 94.112-154.176 9.984-42.048 18.944-131.52 6.432-190.016-16.704-77.92-61.536-118.432-136.992-123.872-11.808-0.832-30.912-1.984-47.488-1.92-13.728 0.064-27.328 0.928-37.568 1.632l-4.8 0.288c-75.2 4.672-119.936 45.184-136.768 123.904-12.512 58.336-3.552 147.872 6.4 190.016 16.192 68.128 51.36 125.792 94.144 154.176 6.688 4.48 10.72 11.968 10.72 20l0 59.744c0 12.416-9.44 22.752-21.792 23.904-138.848 12.896-235.296 59.904-251.712 122.656-5.888 22.4-2.656 40.576 10.112 57.152 38.784 50.304 163.616 80.448 333.952 80.608 80.992-0.064 154.048-7.104 211.2-20.288 12.736-3.104 25.792 5.024 28.768 17.984 3.008 12.896-5.056 25.824-17.984 28.768C642.112 969.536 565.312 976.96 480.704 977.024z" p-id="1987" fill="#ffffff"></path></svg>