<?xml version="1.0" standalone="no"?><!DOCTYPE svg PUBLIC "-//W3C//DTD SVG 1.1//EN" "http://www.w3.org/Graphics/SVG/1.1/DTD/svg11.dtd"><svg t="1552901575528" class="icon" style="" viewBox="0 0 1024 1024" version="1.1" xmlns="http://www.w3.org/2000/svg" p-id="6993" xmlns:xlink="http://www.w3.org/1999/xlink" width="200" height="200"><defs><style type="text/css"></style></defs><path d="M116.761466 397.890518c0.418734-1.116624 0.977046-2.233249 1.256202-3.442926A40.338059 40.338059 0 0 1 151.88861 363.368211c2.838087-0.372208 5.815752-0.511786 8.700366-0.558312h23.076905l0.23263-2.605457v-4.699128V25.356681c0-3.024191 0-6.094909 0.604839-9.026048a20.09924 20.09924 0 0 1 19.727032-15.725795c76.535302 0.69789 140.973839 28.892658 192.61772 85.468298A240.399942 240.399942 0 0 1 455.703517 204.714485c3.256821 16.795893 4.652602 33.731364 4.280393 50.852939-0.325682 17.912517-0.093052 35.778509-0.093052 53.644501V362.902951h3.3964c7.909423 0 15.911899-0.279156 23.821322 0.046526 15.725795 0.744416 27.682982 7.909423 35.359774 21.820703 3.349873 6.048383 4.513024 12.748129 4.513024 19.63398V981.233748c0 9.956568-2.326301 19.075668-8.653839 26.845513a39.547116 39.547116 0 0 1-27.217722 15.074431c-2.745035 0.279156-5.443544 0.46526-8.142053 0.46526H159.751507a42.617834 42.617834 0 0 1-27.682981-9.165626 39.640168 39.640168 0 0 1-14.097384-22.704697c-0.23263-1.116624-0.790942-2.093671-1.209676-3.117244V397.890518z" p-id="6994"></path><path d="M159.007091 526.674539v455.582782h326.10087V526.674539H158.960565zM225.818455 362.623795h192.338564v-3.954712-104.776595c0-4.513024 0.139578-9.026048 0-13.492546a183.917355 183.917355 0 0 0-8.049001-47.45654C391.03235 131.296427 351.578285 87.375864 293.234657 60.251195c-18.749986-8.746892-38.616596-14.004332-59.088045-16.888945C231.448103 42.943516 228.656542 42.803938 225.771929 42.524782v320.099013zM485.107961 403.985426a27108.850439 27108.850439 0 0 0-326.147396 0.23263v81.280956h326.147396V403.985426z" p-id="6995"></path><path d="M895.3744 793.50126c0 57.320056-0.093052 114.640112 0 171.960168 0.046526 12.375921-2.977665 23.635218-10.235725 33.54526a56.947848 56.947848 0 0 1-41.873417 24.053952c-3.256821 0.325682-6.513643 0.46526-9.677412 0.46526h-197.735582a57.692264 57.692264 0 0 1-42.571308-17.586835 56.156905 56.156905 0 0 1-16.330633-38.616597v-2.838087-342.384976c0-12.562025 3.117243-24.19353 10.51488-34.429254 10.375302-14.283488 24.333108-22.332489 41.873418-24.147005 3.070717-0.325682 6.234487-0.46526 9.398256-0.46526h197.363374c14.190436 0 26.985091 4.047764 38.10481 12.98076 11.166245 8.979522 18.145148 20.657553 20.611026 34.801462 0.604838 3.582503 0.511786 7.304585 0.511786 10.980141v171.681011z m-41.50121 0V623.448659c0-1.395781 0-2.745035-0.093052-4.094289a15.632743 15.632743 0 0 0-10.887088-14.236962 28.380872 28.380872 0 0 0-8.049002-0.930521h-197.037692c-1.395781 0-2.745035 0-4.094289 0.093052a16.098003 16.098003 0 0 0-14.655696 12.887708c-0.325682 1.861041-0.279156 3.722082-0.279157 5.583122V966.71763a15.725795 15.725795 0 0 0 10.980141 14.888326c2.605457 0.790942 5.583122 0.93052 8.374683 0.930521 65.415583 0.093052 130.924218 0.046526 196.339802 0.046526 1.488833 0 2.977665 0 4.419972-0.093052a16.004951 16.004951 0 0 0 14.888326-15.07443c0.139578-1.395781 0.093052-2.698509 0.093052-4.09429v-169.773445z" p-id="6996"></path></svg>