<?xml version="1.0" standalone="no"?><!DOCTYPE svg PUBLIC "-//W3C//DTD SVG 1.1//EN" "http://www.w3.org/Graphics/SVG/1.1/DTD/svg11.dtd"><svg t="1555490739476" class="icon" style="" viewBox="0 0 1090 1024" version="1.1" xmlns="http://www.w3.org/2000/svg" p-id="14615" xmlns:xlink="http://www.w3.org/1999/xlink" width="212.890625" height="200"><defs><style type="text/css"></style></defs><path d="M221.602854 0l639.239001 64.532699c26.787158 3.652794 51.13912 17.046373 68.185493 35.310345 18.263971 19.48157 29.222354 45.05113 29.222355 71.838288v533.307966c38.963139 14.611177 70.62069 30.439952 92.537455 48.703924 26.787158 21.916766 40.180737 45.05113 40.180737 70.62069 0 35.310345-28.004756 68.185493-80.361474 96.19025-47.486326 25.56956-116.889417 46.268728-200.903686 62.097503-8.523187 1.217598-17.046373-4.870392-18.263972-13.393579s3.652794-17.046373 12.175981-18.263972c81.579073-14.611177 147.32937-34.092747 192.3805-58.444709 40.180737-21.916766 63.315101-45.05113 63.315101-68.185493 0-14.611177-9.740785-30.439952-28.004756-46.268728-18.263971-13.393579-42.615933-28.004756-73.055886-40.180737v68.185494c0 4.870392-1.217598 9.740785-1.217598 15.828775-3.652794 20.699168-14.611177 38.963139-29.222355 53.574316-14.611177 13.393579-35.310345 21.916766-56.009512 21.916766-4.870392 0-9.740785-1.217598-14.611177-1.217598l-639.239002-105.931035c-26.787158-4.870392-51.13912-18.263971-68.185493-37.745541-4.870392-4.870392-8.523187-9.740785-12.175981-15.828775-19.48157 7.305589-38.963139 17.046373-57.227111 28.004756-12.175981 7.305589-25.56956 17.046373-35.310344 28.004756-7.305589 8.523187-13.393579 19.48157-13.393579 31.657551 0 6.08799 1.217598 10.958383 3.652794 15.828775l1.217598 2.435196c0 1.217598 1.217598 3.652794 2.435196 4.870393 1.217598 2.435196 2.435196 3.652794 4.870393 6.08799 1.217598 1.217598 2.435196 3.652794 4.870392 6.087991 1.217598 1.217598 3.652794 3.652794 6.08799 4.870392 2.435196 3.652794 6.08799 6.08799 8.523187 8.523187 2.435196 1.217598 4.870392 2.435196 7.305589 4.870392l10.958383 7.305589c3.652794 2.435196 8.523187 4.870392 12.175981 6.08799 4.870392 3.652794 9.740785 6.08799 15.828775 8.523187s12.175981 4.870392 17.046373 7.305589c8.523187 3.652794 15.828775 6.08799 23.134364 9.740784 7.305589 1.217598 13.393579 3.652794 19.48157 6.087991 8.523187 2.435196 15.828775 4.870392 24.351962 7.305588 10.958383 2.435196 20.699168 4.870392 31.65755 7.305589 9.740785 2.435196 19.48157 4.870392 30.439952 7.305589s23.134364 4.870392 34.092747 6.08799l40.180737 7.305589c13.393579 1.217598 26.787158 3.652794 41.398336 4.870392s28.004756 2.435196 42.615933 3.652794c15.828775 1.217598 30.439952 2.435196 45.05113 3.652795 14.611177 0 28.004756 1.217598 42.615933 1.217598h43.833532c41.398335 0 81.579073-1.217598 122.977408-3.652794l-2.435197-25.569561 85.231867 35.310345-79.143876 46.268728-1.217598-24.351962c-41.398335 2.435196-84.014269 3.652794-125.412604 3.652794h-37.745541c-14.611177 0-29.222354-1.217598-43.833532-1.217598-14.611177-1.217598-30.439952-2.435196-45.051129-3.652794-15.828775 0-30.439952-2.435196-45.05113-3.652794s-28.004756-2.435196-42.615933-4.870393c-12.175981-1.217598-25.56956-3.652794-37.745542-6.08799-10.958383-1.217598-23.134364-3.652794-34.092746-6.087991-10.958383-1.217598-20.699168-3.652794-31.657551-6.08799s-21.916766-6.08799-32.875148-8.523187c-8.523187-2.435196-17.046373-4.870392-26.787159-7.305588l-21.916765-7.305589c-7.305589-2.435196-14.611177-4.870392-20.699168-7.305589l-18.263971-7.305588c-6.08799-2.435196-10.958383-4.870392-17.046374-8.523187l-14.611177-7.305588c-4.870392-2.435196-8.523187-4.870392-13.393579-7.305589-3.652794-2.435196-6.08799-4.870392-9.740785-7.305589l-10.958383-7.305588-6.08799-6.087991c-2.435196-1.217598-3.652794-3.652794-6.087991-4.870392-1.217598-2.435196-3.652794-3.652794-4.870392-6.087991l-4.870392-4.870392c-1.217598-2.435196-3.652794-3.652794-4.870393-6.08799s-2.435196-3.652794-3.652794-6.087991c0-1.217598-1.217598-2.435196-2.435196-3.652794 0-2.435196-1.217598-3.652794-2.435197-6.087991-1.217598-1.217598-1.217598-2.435196-1.217598-3.652794-1.217598-1.217598-1.217598-2.435196-1.217598-3.652794-1.217598-2.435196-1.217598-3.652794-1.217598-4.870393-1.217598-1.217598-1.217598-2.435196-1.217598-3.652794s0-2.435196-1.217598-3.652794v-4.870393-3.652794c0-3.652794 0-6.08799 1.217598-9.740785 1.217598-13.393579 7.305589-25.56956 15.828775-37.745541 13.393579-17.046373 32.875149-31.657551 52.356719-42.615933 18.263971-10.958383 36.527943-19.48157 56.009512-26.787158-2.435196-7.305589-3.652794-15.828775-3.652794-24.351962V91.319857c0-3.652794 0-6.08799 1.217598-9.740784 2.435196-24.351962 12.175981-43.833532 28.004756-58.444709s37.745541-23.134364 60.879905-23.134364h9.740785z m-62.097503 709.859691v1.217598c3.652794 7.305589 8.523187 14.611177 13.393579 20.699168 13.393579 13.393579 30.439952 23.134364 49.921522 26.787158l639.239001 105.931034c3.652794 0 6.08799 1.217598 9.740785 1.217598 13.393579 0 25.56956-6.08799 34.092747-14.611177 9.740785-8.523187 17.046373-20.699168 19.481569-35.310345 0-2.435196 1.217598-6.08799 1.217598-9.740784V623.410226L739.082045 417.636147l-1.217598-1.217598c-1.217598-1.217598-1.217598-1.217598-2.435196-1.217598h-1.217598l-81.579073 73.055886c-6.08799 6.08799-15.828775 4.870392-21.916765-1.217598L390.848989 224.03805c0-1.217598-1.217598-1.217598-2.435196-1.217598v-1.217598L153.41736 432.247325v250.825208c0 9.740785 2.435196 18.263971 6.087991 26.787158z m188.727705-104.713437l62.097503-80.361474-130.282997-19.48157v28.004757l81.579073 10.958383-70.62069 85.231866 4.870393 3.652795c7.305589-3.652794 13.393579-6.08799 20.699167-7.305589 6.08799-1.217598 13.393579-1.217598 19.48157-1.217598 15.828775 2.435196 28.004756 9.740785 37.745541 20.699168 8.523187 10.958383 13.393579 23.134364 13.393579 37.745541s-4.870392 25.56956-14.611177 34.092746c-8.523187 7.305589-20.699168 10.958383-35.310345 8.523187-8.523187-1.217598-17.046373-4.870392-24.351962-12.175981-8.523187-6.08799-14.611177-14.611177-19.48157-24.351962l-25.56956 9.740785c7.305589 14.611177 17.046373 26.787158 29.222355 35.310345 10.958383 9.740785 25.56956 14.611177 41.398335 17.046373 21.916766 3.652794 41.398335-1.217598 56.009513-13.393579s21.916766-29.222354 21.916765-52.356718c0-20.699168-6.08799-37.745541-18.263971-52.356718-13.393579-15.828775-29.222354-24.351962-49.921522-28.004757z m171.681332 30.439953h-8.523187c-2.435196-1.217598-6.08799-1.217598-9.740785-1.217598l63.315101-85.231867-34.092746-4.870392-68.185494 96.190249c-7.305589 10.958383-12.175981 19.48157-15.828775 29.222355-2.435196 8.523187-4.870392 18.263971-4.870393 28.004756 0 20.699168 7.305589 38.963139 20.699168 53.574316 13.393579 15.828775 30.439952 24.351962 52.356718 28.004756 9.740785 1.217598 20.699168 1.217598 30.439953-2.435196 9.740785-2.435196 18.263971-7.305589 24.351962-14.611177 6.08799-4.870392 10.958383-12.175981 13.393579-19.48157 3.652794-8.523187 4.870392-17.046373 4.870392-26.787158 0-19.48157-6.08799-37.745541-19.481569-52.356718-13.393579-15.828775-29.222354-24.351962-48.703924-28.004756z m25.56956 109.583829c-7.305589 7.305589-18.263971 9.740785-30.439953 8.523186-13.393579-2.435196-24.351962-8.523187-31.65755-17.046373-7.305589-9.740785-10.958383-21.916766-10.958383-35.310345s3.652794-24.351962 10.958383-31.65755c8.523187-7.305589 19.48157-10.958383 31.65755-8.523187 13.393579 2.435196 24.351962 8.523187 31.657551 17.046373 7.305589 9.740785 10.958383 21.916766 10.958383 36.527943 0 13.393579-3.652794 23.134364-12.175981 30.439953z m187.510107-152.199763c-12.175981-15.828775-29.222354-24.351962-51.13912-28.004756-20.699168-3.652794-37.745541 0-51.13912 12.175981-12.175981 10.958383-19.48157 28.004756-19.48157 49.921522v93.755054c0 21.916766 7.305589 40.180737 19.48157 56.009512 13.393579 15.828775 30.439952 25.56956 51.13912 28.004756 20.699168 3.652794 37.745541 0 49.921522-12.175981 13.393579-10.958383 19.48157-28.004756 19.481569-49.921522v-91.319857c0-24.351962-6.08799-43.833532-18.263971-58.444709z m-10.958383 135.153389c0 19.48157-3.652794 32.875149-9.740785 41.398336-7.305589 8.523187-17.046373 12.175981-30.439952 9.740784-13.393579-1.217598-24.351962-8.523187-30.439953-19.481569-7.305589-9.740785-10.958383-25.56956-10.958383-45.05113v-71.838288c0-19.48157 3.652794-34.092747 10.958383-42.615933 6.08799-8.523187 17.046373-12.175981 30.439953-9.740785s23.134364 8.523187 30.439952 19.48157c6.08799 9.740785 9.740785 25.56956 9.740785 45.051129v73.055886z m85.231867-185.074911c-19.48157-3.652794-35.310345 9.740785-35.310345 29.222355s15.828775 37.745541 35.310345 40.180737c19.48157 3.652794 34.092747-9.740785 34.092746-29.222354s-14.611177-37.745541-34.092746-40.180738z m0 58.444709c-13.393579-2.435196-23.134364-14.611177-23.134364-28.004756 0-12.175981 9.740785-20.699168 23.134364-19.48157 12.175981 2.435196 23.134364 14.611177 23.134363 26.787159 0 13.393579-10.958383 21.916766-23.134363 20.699167zM685.507729 155.852556c24.351962 0 46.268728 9.740785 60.879905 26.787159 15.828775 15.828775 25.56956 37.745541 25.56956 62.097503v1.217598c0 23.134364-9.740785 45.05113-25.56956 59.662306-14.611177 15.828775-36.527943 24.351962-59.662307 24.351962h-2.435196c-23.134364 0-45.05113-10.958383-60.879905-26.787158s-25.56956-37.745541-25.56956-62.097503v-1.217598c0-23.134364 9.740785-45.05113 25.56956-59.662307 15.828775-15.828775 36.527943-24.351962 59.662307-24.351962h2.435196z m38.963139 47.486326c-9.740785-9.740785-24.351962-17.046373-40.180737-17.046373h-1.217598c-14.611177 0-28.004756 6.08799-37.745541 15.828775-10.958383 9.740785-17.046373 23.134364-17.046374 37.745541v1.217598c0 15.828775 6.08799 30.439952 17.046374 41.398336 9.740785 9.740785 24.351962 17.046373 40.180737 17.046373h1.217598c14.611177 0 28.004756-6.08799 38.963139-15.828775 9.740785-9.740785 15.828775-23.134364 15.828775-37.745541v-1.217598c0-15.828775-6.08799-30.439952-17.046373-41.398336zM153.41736 389.631391l213.079667-191.162901c7.305589-6.08799 15.828775-8.523187 25.56956-7.305589 8.523187 0 17.046373 4.870392 23.134364 10.958383l228.908443 252.042806 69.403091-62.097503c7.305589-7.305589 15.828775-9.740785 25.56956-8.523186 7.305589 1.217598 14.611177 4.870392 20.699168 9.740784l1.217598 1.217599 1.217598 1.217598 164.375743 180.204518V171.681332c0-18.263971-8.523187-36.527943-20.699167-49.921522s-29.222354-23.134364-47.486326-25.56956L217.950059 31.657551h-6.08799c-15.828775 0-29.222354 6.08799-38.963139 14.611177-10.958383 9.740785-17.046373 23.134364-19.48157 37.745541v305.617122z" fill="#2a2a2a" p-id="14616"></path><path d="M153.41736 389.631391l213.079667-191.162901c7.305589-6.08799 15.828775-8.523187 25.56956-7.305589 8.523187 0 17.046373 4.870392 23.134364 10.958383l228.908443 252.042806 69.403091-62.097503c7.305589-7.305589 15.828775-9.740785 25.56956-8.523186 7.305589 1.217598 14.611177 4.870392 20.699168 9.740784l1.217598 1.217599 1.217598 1.217598 164.375743 180.204518V171.681332c0-18.263971-8.523187-36.527943-20.699167-49.921522s-29.222354-23.134364-47.486326-25.56956L217.950059 31.657551h-6.08799c-15.828775 0-29.222354 6.08799-38.963139 14.611177-10.958383 9.740785-17.046373 23.134364-19.48157 37.745541v305.617122z m532.090369-233.778835c24.351962 0 46.268728 9.740785 60.879905 26.787159 15.828775 15.828775 25.56956 37.745541 25.56956 62.097503v1.217598c0 23.134364-9.740785 45.05113-25.56956 59.662306-14.611177 15.828775-36.527943 24.351962-59.662307 24.351962h-2.435196c-23.134364 0-45.05113-10.958383-60.879905-26.787158s-25.56956-37.745541-25.56956-62.097503v-1.217598c0-23.134364 9.740785-45.05113 25.56956-59.662307 15.828775-15.828775 36.527943-24.351962 59.662307-24.351962h2.435196z" fill="#ffcf1c" p-id="14617"></path></svg>