<?xml version="1.0" standalone="no"?><!DOCTYPE svg PUBLIC "-//W3C//DTD SVG 1.1//EN" "http://www.w3.org/Graphics/SVG/1.1/DTD/svg11.dtd"><svg t="1553245668668" class="icon" style="" viewBox="0 0 1024 1024" version="1.1" xmlns="http://www.w3.org/2000/svg" p-id="2792" xmlns:xlink="http://www.w3.org/1999/xlink" width="200" height="200"><defs><style type="text/css"></style></defs><path d="M938.690971 341.381942h85.309029V42.727428c0-23.624039-19.103389-42.727428-42.727428-42.727428H682.618058v85.309029h255.927086l0.145827 256.072913zM85.309029 85.309029h256.072913V0H42.727428C19.103389 0 0 19.103389 0 42.727428v298.654514h85.309029V85.309029zM85.309029 682.618058H0v298.654514c0 23.624039 19.103389 42.727428 42.727428 42.727428h298.654514v-85.309029H85.309029V682.618058zM938.690971 938.690971H682.618058v85.309029h298.654514c23.624039 0 42.727428-19.103389 42.727428-42.727428V682.618058h-85.309029v256.072913zM938.690971 554.581601H85.309029v-85.309029h853.381942z" fill="#ffffff" p-id="2793"></path></svg>