<?xml version="1.0" standalone="no"?><!DOCTYPE svg PUBLIC "-//W3C//DTD SVG 1.1//EN" "http://www.w3.org/Graphics/SVG/1.1/DTD/svg11.dtd"><svg t="1552356338497" class="icon" style="" viewBox="0 0 1032 1024" version="1.1" xmlns="http://www.w3.org/2000/svg" p-id="3242" xmlns:xlink="http://www.w3.org/1999/xlink" width="201.5625" height="200"><defs><style type="text/css"></style></defs><path d="M480.653061 413.779592c-91.95102-20.897959-183.902041 33.436735-204.8 125.387755s33.436735 183.902041 125.387755 204.8 183.902041-33.436735 204.8-125.387755-37.616327-179.722449-125.387755-204.8z" fill="#5EB9E9" p-id="3243"></path><path d="M509.910204 20.897959C234.057143 20.897959 8.359184 246.595918 8.359184 522.44898s225.697959 501.55102 501.55102 501.55102 501.55102-225.697959 501.55102-501.55102-225.697959-501.55102-501.55102-501.551021z m292.571429 405.420408c0 16.718367-16.718367 29.257143-33.436735 29.257143s-29.257143-16.718367-29.257143-33.436734l4.179592-75.232654-100.310204 104.489796c33.436735 54.334694 45.97551 117.028571 33.436735 183.902041-29.257143 129.567347-158.82449 208.979592-288.391837 179.722449-129.567347-29.257143-208.979592-158.82449-179.722449-288.391837 29.257143-129.567347 158.82449-208.979592 288.391837-179.722449 37.616327 8.359184 75.232653 29.257143 104.489795 54.334694L706.35102 292.571429l-83.591836-8.359184c-16.718367 0-29.257143-16.718367-29.257143-33.436735s16.718367-29.257143 33.436735-29.257143l158.824489 12.538776c8.359184 0 12.538776 4.179592 16.718368 8.359184 8.359184 8.359184 12.538776 16.718367 12.538775 25.077551l-12.538775 158.824489z" fill="#5EB9E9" p-id="3244"></path></svg>