<?xml version="1.0" standalone="no"?><!DOCTYPE svg PUBLIC "-//W3C//DTD SVG 1.1//EN" "http://www.w3.org/Graphics/SVG/1.1/DTD/svg11.dtd"><svg t="1555490769848" class="icon" style="" viewBox="0 0 1170 1024" version="1.1" xmlns="http://www.w3.org/2000/svg" p-id="14999" xmlns:xlink="http://www.w3.org/1999/xlink" width="228.515625" height="200"><defs><style type="text/css"></style></defs><path d="M898.46763403 550.42075904c-61.02120558 0-110.7421875-49.72098192-110.74218749-106.22209865 0 61.02120558-49.72098192 106.22209788-110.7421875 106.22209865s-110.7421875-49.72098192-110.7421875-106.22209865c0 61.02120558-49.72098192 106.22209788-110.7421875 106.22209865s-110.7421875-49.72098192-110.7421875-106.22209865c0 61.02120558-49.72098192 106.22209788-110.7421875 106.22209865C168.47321462 550.42075904 116.4921875 500.69977711 116.4921875 441.93861596l76.84151808-198.88392846h732.25446384l79.1015625 198.88392847c4.52008961 61.02120558-45.20089308 108.48214308-106.22209788 108.48214307zM930.10825903 245.31473192h2.26004444-2.26004443zM263.39508962 618.22209788v228.26450904h605.69196385V618.22209788h63.28125v239.5647327c0 20.34040211-24.86049097 47.4609375-49.72098193 47.46093749H247.57477712c-22.60044653 0-49.72098192-24.86049097-49.7209827-47.46093749V618.22209788h65.54129519zM882.64732153 186.55357153h-632.8125c-20.34040211 0-36.16071461-15.8203125-36.16071461-33.90066941S227.234375 116.4921875 249.83482153 116.4921875h630.55245558c20.34040211 0 36.16071461 15.8203125 36.16071385 33.90066942 4.52008961 22.60044653-13.56026808 36.16071461-33.90066943 36.16071461z" fill="#1296db" p-id="15000"></path><path d="M729.39369408 634.3362163h-61.02120558c-6.78013403 0-11.30022289 4.52008961-11.30022287 11.30022365l4.52008961 51.98102635v2.2600452c0 4.52008961 4.52008961 6.78013403 6.78013326 6.78013325h2.2600452c2.26004443 0 4.52008961 2.26004443 4.52008885 4.52008962l4.52008961 54.24107155v2.26004442c0 4.52008961 4.52008961 6.78013403 6.78013404 6.78013403h20.34040135c4.52008961 0 6.78013403-2.26004443 6.78013403-6.78013403v-2.26004442l4.52008962-54.24107155c0-2.26004443 2.26004443-4.52008961 4.52008885-4.52008961h2.26004519c4.52008961 0 6.78013403-2.26004443 6.78013326-6.78013326l4.52008963-51.98102713c4.52008961-9.04017846 0-13.56026808-6.78013405-13.56026807zM700.0131135 623.03599341c13.56026808 0 24.86049097-11.30022289 24.86049174-27.12053615s-11.30022289-27.12053539-24.86049174-27.12053539c-15.8203125 0-27.12053539 11.30022289-27.12053538 27.12053539s11.30022289 27.12053539 27.12053538 27.12053616z" fill="#1296db" p-id="15001"></path><path d="M317.63616038 701.84375h494.94977712v144.64285692H317.63616038z" fill="#1296db" p-id="15002"></path><path d="M353.796875 634.04241038h160.46316942v90.40178615h-160.46316942z" fill="#1296db" p-id="15003"></path><path d="M446.45870558 667.94308058h97.18191942v56.50111595h-97.18191942z" fill="#1296db" p-id="15004"></path></svg>