<?xml version="1.0" standalone="no"?><!DOCTYPE svg PUBLIC "-//W3C//DTD SVG 1.1//EN" "http://www.w3.org/Graphics/SVG/1.1/DTD/svg11.dtd"><svg t="1552901382119" class="icon" style="" viewBox="0 0 1024 1024" version="1.1" xmlns="http://www.w3.org/2000/svg" p-id="2988" xmlns:xlink="http://www.w3.org/1999/xlink" width="200" height="200"><defs><style type="text/css"></style></defs><path d="M796.009412 1024H227.990588C193.566118 1024 165.647059 995.328 165.647059 960V64C165.647059 28.641882 200.493176 0 234.917647 0h561.091765C830.433882 0 858.352941 28.641882 858.352941 64v896C858.352941 995.328 830.433882 1024 796.009412 1024z m-284.009412-32.015059c17.197176 0 31.171765-14.305882 31.171765-31.984941 0-17.679059-13.974588-32.015059-31.171765-32.015059-17.227294 0-31.171765 14.336-31.171765 32.015059s13.944471 31.984941 31.171765 31.984941z m140.257882-927.984941H371.712a15.781647 15.781647 0 0 0-15.570824 15.992471c0 8.824471 6.957176 15.992471 15.570824 15.99247h280.545882a15.811765 15.811765 0 0 0 15.600942-15.99247 15.811765 15.811765 0 0 0-15.600942-15.992471zM227.990588 159.984941L234.917647 882.748235h554.164706l6.927059-722.763294H227.990588z" fill="#2c2c2c" p-id="2989"></path></svg>