<?xml version="1.0" standalone="no"?><!DOCTYPE svg PUBLIC "-//W3C//DTD SVG 1.1//EN" "http://www.w3.org/Graphics/SVG/1.1/DTD/svg11.dtd"><svg t="1552786832202" class="icon" style="" viewBox="0 0 1024 1024" version="1.1" xmlns="http://www.w3.org/2000/svg" p-id="6683" xmlns:xlink="http://www.w3.org/1999/xlink" width="200" height="200"><defs><style type="text/css"></style></defs><path d="M711.22944 41.32864c-85.11488 0-164.00384 42.8032-216.43264 113.2544-51.85536-70.4512-131.31776-113.2544-216.43264-113.2544-153.31328 0-277.87264 136.3968-277.87264 303.75936 0 99.77856 44.52352 170.22976 80.60928 226.59072 104.2432 164.00384 366.91968 367.45216 378.18368 375.93088a56.81152 56.81152 0 0 0 70.98368 0c11.30496-8.47872 273.36704-212.50048 378.22464-375.93088 36.0448-56.36096 80.56832-126.81216 80.56832-226.59072 0-167.40352-124.5184-303.75936-277.83168-303.75936z m125.66528 528.67072c-96.37888 135.24992-300.40064 289.66912-310.55872 297.00096-9.58464 7.33184-20.84864 11.264-31.5392 11.264-11.264 0-21.99552-3.35872-31.5392-11.264-10.19904-7.33184-210.24768-163.4304-310.59968-302.65344-32.11264-50.70848-83.39456-113.8688-83.39456-202.91584 0-149.9136 83.39456-255.30368 220.3648-255.30368 76.10368 0 158.9248 72.704 205.16864 135.82336 46.77632-63.0784 129.024-135.82336 205.12768-135.82336 137.54368 0 226.59072 105.39008 226.59072 255.30368 0 89.04704-56.9344 158.39232-89.62048 208.56832z" p-id="6684" fill="#d81e06"></path></svg>