<?xml version="1.0" standalone="no"?><!DOCTYPE svg PUBLIC "-//W3C//DTD SVG 1.1//EN" "http://www.w3.org/Graphics/SVG/1.1/DTD/svg11.dtd"><svg t="1552901472628" class="icon" style="" viewBox="0 0 1024 1024" version="1.1" xmlns="http://www.w3.org/2000/svg" p-id="4451" xmlns:xlink="http://www.w3.org/1999/xlink" width="200" height="200"><defs><style type="text/css"></style></defs><path d="M526.693157 1010.437086H406.887417c-18.083885 0-33.907285-15.8234-33.907285-33.907285v-926.799117c0-18.083885 15.8234-33.907285 33.907285-33.907284h119.80574c18.083885 0 33.907285 15.8234 33.907285 33.907284v926.799117c0 18.083885-15.8234 33.907285-33.907285 33.907285z m-117.545254-972.00883c-6.781457 0-11.302428 4.520971-11.302428 11.302428v926.799117c0 6.781457 4.520971 11.302428 11.302428 11.302429h119.805739c6.781457 0 11.302428-4.520971 11.302429-11.302429v-926.799117c0-6.781457-4.520971-11.302428-11.302429-11.302428h-119.805739z" fill="#2c2c2c" p-id="4452"></path><path d="M535.735099 198.922737H384.282561c-6.781457 0-11.302428-4.520971-11.302429-11.302428s4.520971-11.302428 11.302429-11.302428h151.452538c6.781457 0 11.302428 4.520971 11.302429 11.302428s-4.520971 11.302428-11.302429 11.302428zM813.774834 1012.697572c-15.8234 0-29.386313-11.302428-33.907284-27.125828L594.507726 76.856512c-4.520971-18.083885 9.041943-36.16777 27.125828-40.688742L736.918322 11.302428c9.041943-2.260486 18.083885 0 24.865342 4.520972 6.781457 4.520971 13.562914 13.562914 13.562914 22.604856l185.359824 908.715232c4.520971 18.083885-9.041943 36.16777-27.125828 40.688742l-115.284768 24.865342H813.774834zM743.699779 36.16777s-2.260486 0 0 0l-117.545254 24.865343c-6.781457 2.260486-9.041943 6.781457-9.041942 13.562913l185.359823 908.715232c2.260486 6.781457 6.781457 9.041943 13.562914 9.041943l115.284768-24.865342c6.781457-2.260486 9.041943-6.781457 9.041943-13.562914L755.002208 45.209713c0-2.260486-2.260486-4.520971-4.520972-6.781457-2.260486-2.260486-4.520971-2.260486-6.781457-2.260486z" fill="#2c2c2c" p-id="4453"></path><path d="M632.935982 221.527594c-4.520971 0-9.041943-4.520971-11.302428-9.041943-2.260486-6.781457 2.260486-11.302428 9.041943-13.562914l146.931567-29.386313c6.781457-2.260486 13.562914 2.260486 13.562914 6.781457 2.260486 6.781457-2.260486 11.302428-9.041943 13.562914l-146.931567 29.386313c0 2.260486-2.260486 2.260486-2.260486 2.260486z" fill="#2c2c2c" p-id="4454"></path><path d="M214.746137 1010.437086H94.940397c-18.083885 0-33.907285-15.8234-33.907284-33.907285v-926.799117c0-18.083885 15.8234-33.907285 33.907284-33.907284h119.80574c18.083885 0 33.907285 15.8234 33.907285 33.907284v926.799117c0 18.083885-15.8234 33.907285-33.907285 33.907285z m-119.80574-972.00883c-4.520971 0-11.302428 4.520971-11.302428 11.302428v926.799117c0 6.781457 4.520971 11.302428 11.302428 11.302429h119.80574c6.781457 0 11.302428-4.520971 11.302428-11.302429v-926.799117c0-6.781457-4.520971-11.302428-11.302428-11.302428H94.940397z" fill="#2c2c2c" p-id="4455"></path><path d="M223.788079 198.922737H72.335541c-4.520971 0-11.302428-6.781457-11.302428-11.302428s6.781457-11.302428 11.302428-11.302428h151.452538c6.781457 0 11.302428 4.520971 11.302429 11.302428s-4.520971 11.302428-11.302429 11.302428z" fill="#2c2c2c" p-id="4456"></path></svg>