<?xml version="1.0" standalone="no"?><!DOCTYPE svg PUBLIC "-//W3C//DTD SVG 1.1//EN" "http://www.w3.org/Graphics/SVG/1.1/DTD/svg11.dtd"><svg t="1552128870742" class="icon" style="" viewBox="0 0 1024 1024" version="1.1" xmlns="http://www.w3.org/2000/svg" p-id="3800" xmlns:xlink="http://www.w3.org/1999/xlink" width="200" height="200"><defs><style type="text/css"></style></defs><path d="M511.171 64.048c-241.875 0-437.954 171.568-437.954 383.207 0 120.956 64.199 228.652 164.232 298.883v193.819l191.863-116.424c26.547 4.4 53.851 6.932 81.858 6.932 241.875 0 437.955-171.566 437.955-383.21 0-211.639-196.08-383.207-437.954-383.207z m0 702.46c-23.07 0-47.093-2.043-71.403-6.072l-23.377-3.874-114.983 69.773V712.893L274.2 693.791c-87.082-61.137-137.026-150.996-137.026-246.536 0-176.035 167.774-319.25 373.997-319.25s373.997 143.215 373.997 319.25c0 176.037-167.774 319.253-373.998 319.253z" p-id="3801"></path><path d="M258.816 446.423a61.084 61.084 0 1 0 125.015 0 61.084 61.084 0 1 0-125.015 0zM450.942 446.423a61.084 61.084 0 1 0 125.016 0 61.084 61.084 0 1 0-125.016 0zM643.068 448.47a61.084 61.084 0 1 0 125.015 0 61.084 61.084 0 1 0-125.015 0z" p-id="3802"></path></svg>