<?xml version="1.0" standalone="no"?><!DOCTYPE svg PUBLIC "-//W3C//DTD SVG 1.1//EN" "http://www.w3.org/Graphics/SVG/1.1/DTD/svg11.dtd"><svg t="1552904381128" class="icon" style="" viewBox="0 0 1229 1024" version="1.1" xmlns="http://www.w3.org/2000/svg" p-id="2589" xmlns:xlink="http://www.w3.org/1999/xlink" width="240.0390625" height="200"><defs><style type="text/css"></style></defs><path d="M1094.217143 754.834286c0 32.182857 0 219.428571 0 242.834286 0 23.405714-52.662857 23.405714-52.662857 0s0-225.28 0-242.834286c0-17.554286 2.925714-26.331429-26.331429-26.331429-29.257143 0-117.028571 23.405714-187.245714 108.251429C760.685714 918.674286 716.8 1024 693.394286 1024c-23.405714 0-345.234286 0-374.491429 0-29.257143 0-26.331429-23.405714-26.331429-52.662857 0-29.257143 0-32.182857 0-52.662857 0-29.257143 52.662857-52.662857 52.662857-52.662857s-260.388571 0-292.571429 0S0 860.16 0 807.497143c0-52.662857 46.811429-187.245714 78.994286-269.165714 32.182857-81.92 26.331429-108.251429 26.331429-134.582857 0-26.331429 8.777143-26.331429 26.331429-26.331429 17.554286 0 573.44 0 588.068571 0 14.628571 0 26.331429 5.851429 26.331429 26.331429 0 20.48 17.554286 73.142857 26.331429 108.251429 8.777143 35.108571-2.925714 49.737143 26.331429 26.331429 29.257143-23.405714 119.954286-117.028571 187.245714-187.245714 67.291429-70.217143 76.068571-81.92 108.251429-81.92s32.182857 11.702857 52.662857 26.331429c20.48 17.554286 78.994286 87.771429 78.994286 187.245714S1094.217143 722.651429 1094.217143 754.834286zM667.062857 430.08c-17.554286 0-459.337143 0-479.817143 0-26.331429 0-26.331429 11.702857-26.331429 26.331429 0 8.777143 49.737143 187.245714 266.24 187.245714s266.24-166.765714 266.24-187.245714C693.394286 438.857143 684.617143 430.08 667.062857 430.08zM722.651429 564.662857c-29.257143 46.811429-143.36 134.582857-292.571429 134.582857-228.205714 0-289.645714-160.914286-292.571429-134.582857-2.925714 26.331429-78.994286 198.948571-78.994286 216.502857 0 14.628571 11.702857 26.331429 26.331429 26.331429 14.628571 0 348.16 0 374.491429 0 26.331429 0 137.508571-58.514286 160.914286-81.92 23.405714-23.405714 108.251429-108.251429 108.251429-108.251429S725.577143 596.845714 722.651429 564.662857zM1094.217143 324.754286c-17.554286 0-43.885714 40.96-108.251429 108.251429C924.525714 497.371429 731.428571 708.022857 588.068571 807.497143c-143.36 99.474286-239.908571 119.954286-239.908571 134.582857 0 14.628571 20.48 26.331429 26.331429 26.331429 8.777143 0 283.794286 0 292.571429 0s23.405714-8.777143 26.331429-26.331429c5.851429-17.554286 61.44-108.251429 108.251429-160.914286 43.885714-52.662857 140.434286-108.251429 187.245714-108.251429 46.811429 0 64.365714 5.851429 78.994286 0 26.331429-8.777143 108.251429-87.771429 108.251429-187.245714C1176.137143 386.194286 1114.697143 324.754286 1094.217143 324.754286zM614.4 324.754286c0-26.331429 5.851429-269.165714-187.245714-269.165714-193.097143 0-187.245714 248.685714-187.245714 269.165714 0 20.48-52.662857 17.554286-52.662857 0C187.245714 307.2 172.617143 0 427.154286 0s239.908571 304.274286 239.908571 324.754286C667.062857 342.308571 614.4 351.085714 614.4 324.754286z" p-id="2590" fill="#2c2c2c"></path></svg>