<?xml version="1.0" standalone="no"?><!DOCTYPE svg PUBLIC "-//W3C//DTD SVG 1.1//EN" "http://www.w3.org/Graphics/SVG/1.1/DTD/svg11.dtd"><svg t="1555490426088" class="icon" style="" viewBox="0 0 1024 1024" version="1.1" xmlns="http://www.w3.org/2000/svg" p-id="11091" xmlns:xlink="http://www.w3.org/1999/xlink" width="200" height="200"><defs><style type="text/css"></style></defs><path d="M882.682828 455.240404c-5.688889-16.032323-24.048485-24.048485-54.949495-24.048485-23.531313 0-48.355556 4.783838-62.060606 8.016162-1.034343 9.826263-1.810101 19.523232-2.327272 28.573737l29.478787 10.472727-29.995959 4.266667c-0.258586 9.567677-0.387879 19.523232-0.129293 30.642424l24.953535 10.084849-24.436363 3.490909c0.646465 11.636364 1.422222 22.367677 2.327272 32.323232l25.858586 5.688889-24.694949 4.654546c0.775758 6.981818 1.680808 14.222222 2.844444 22.109091 7.240404 1.939394 22.884848 5.559596 39.692929 5.559595 19.393939 0 34.521212-4.654545 44.864647-13.834343 14.868687-13.187879 26.117172-33.357576 31.676768-56.50101 5.559596-24.307071 4.525253-49.648485-3.103031-71.49899zM219.280808 596.945455c16.808081 0 32.323232-3.490909 39.692929-5.559596 1.163636-8.016162 2.19798-15.773737 2.844445-22.109091l-24.69495-4.654546 25.858586-5.688889c1.034343-10.472727 1.810101-21.074747 2.19798-32.323232l-24.436364-3.490909 24.953536-10.084849c0.258586-9.955556 0.129293-20.040404-0.129293-30.642424l-29.99596-4.266666 29.478788-10.472728c-0.646465-10.472727-1.422222-19.911111-2.327273-28.573737-13.705051-3.232323-38.4-8.016162-62.060606-8.016162-30.771717 0-49.389899 8.145455-54.949495 24.177778-7.628283 21.850505-8.662626 47.062626-2.844444 71.240404 5.688889 23.143434 16.937374 43.313131 31.676768 56.50101 10.214141 9.309091 25.341414 13.963636 44.735353 13.963637z m585.050505 25.987878v87.272728l-2.715151-0.129293c-8.533333-0.517172-16.937374-0.646465-25.341415-0.646465-40.985859 0-80.290909 5.559596-120.242424 17.066667-41.761616 12.024242-82.876768 28.444444-115.717171 46.286868l-3.749495 2.068687v-471.919192l1.163636-0.775757c45.511111-27.927273 95.806061-44.606061 129.810101-53.527273 39.434343-10.343434 81.583838-15.644444 125.284848-15.644444 2.973737 0 5.947475 0 8.921213 0.129293h2.585858l-0.387879 174.157575c16.161616-1.422222 31.288889-1.292929 44.606061 0.517172V211.652525c0-12.282828-9.955556-22.238384-22.238384-22.238384h-0.387879c-11.119192-0.646465-22.49697-0.905051-33.616161-0.90505-49.519192 0-97.874747 6.206061-143.773738 18.359596-47.579798 12.670707-92.315152 31.676768-133.30101 56.759596l-1.422222 0.90505-1.422222-0.90505c-82.488889-50.553535-169.890909-75.119192-266.860606-75.119192-10.860606 0-22.109091 0.387879-33.357576 0.90505h-0.387879c-12.282828 0-22.238384 9.955556-22.238384 22.238384v194.844445c13.575758-0.905051 28.70303-0.387879 44.606061 1.680808V232.856566h2.585859c46.80404-0.775758 91.927273 4.525253 134.20606 15.644444 39.822222 10.472727 75.636364 26.505051 119.59596 53.527273l1.163636 0.775757v471.919192l-3.749495-2.068687c-32.581818-17.842424-65.292929-34.779798-105.244444-46.286868-39.822222-11.507071-78.99798-17.066667-119.854546-17.066667-8.533333 0-17.19596 0.258586-25.858586 0.775758l-2.715151 0.129293v-87.919192c-4.783838 0.387879-9.567677 0.646465-14.222222 0.646464-10.731313 0-20.816162-1.163636-30.254546-3.232323v115.070707c0 0.905051 0.129293 1.680808 0.129293 2.585859v0.129293c1.422222 11.119192 10.860606 19.523232 21.979798 19.523232 0.905051 0 1.810101-0.129293 2.715152-0.129293 16.161616-1.939394 32.323232-2.973737 48.096969-2.973737 36.719192 0 71.886869 5.042424 107.830303 15.385858 46.028283 13.187879 84.040404 33.745455 130.585859 62.707071l0.258586 0.129293 0.387879 0.387879 1.422222 0.775757 0.387879 0.258586 0.775757 0.258586h0.129293l1.034344 0.387879h0.129292l1.551516 0.646464 2.973737 1.034344h1.551515l0.258586 0.129293h3.361616l0.646465-0.129293h1.422222l0.387879-0.129293 0.387879-0.129293 0.258585-0.129293 0.517172-0.258586h0.387879l1.551515-0.517171h0.129293l0.387879-0.129293 0.517172-0.258586 0.387878-0.129293 0.258586-0.129293 0.517172-0.258586h0.387879l0.775757-0.258586 1.939394-1.163636 0.129293-0.129293 0.258586-0.129293c42.79596-26.634343 92.832323-48.872727 140.929293-62.577778 36.072727-10.343434 71.369697-15.385859 108.088889-15.385858 15.644444 0 31.676768 0.905051 47.709091 2.844444 0.905051 0.129293 1.810101 0.129293 2.715151 0.129293 11.119192 0 20.557576-8.40404 21.979798-19.523232v-0.129293c0.129293-0.905051 0.129293-1.810101 0.129293-2.456566V616.727273c-12.541414 4.39596-27.539394 6.464646-43.830303 6.20606z" fill="" p-id="11092"></path></svg>