<?xml version="1.0" standalone="no"?><!DOCTYPE svg PUBLIC "-//W3C//DTD SVG 1.1//EN" "http://www.w3.org/Graphics/SVG/1.1/DTD/svg11.dtd"><svg t="1555490700929" class="icon" style="" viewBox="0 0 1024 1024" version="1.1" xmlns="http://www.w3.org/2000/svg" p-id="13869" xmlns:xlink="http://www.w3.org/1999/xlink" width="200" height="200"><defs><style type="text/css"></style></defs><path d="M461.432099 1.264198h101.135802v101.135802h-101.135802zM461.432099 657.382716h101.135802v227.555556h-101.135802zM874.824691 332.483951H227.555556L56.888889 240.197531 227.555556 146.646914h647.269135zM280.651852 610.607407h470.281481l123.891358-92.286419-123.891358-93.550618H280.651852z" fill="#9DDCFC" p-id="13870"></path><path d="M667.496296 713.007407V771.160494c126.419753 16.434568 214.91358 51.832099 214.913581 92.28642 0 56.888889-165.609877 102.4-370.409877 102.4-204.8 0-370.409877-45.511111-370.409877-102.4 0-40.454321 88.493827-75.851852 214.913581-92.28642v-58.153087C152.967901 733.234568 6.320988 792.651852 6.320988 863.446914c0 87.22963 226.291358 159.288889 505.679012 159.288888s505.679012-70.795062 505.679012-159.288888c0-70.795062-146.646914-130.212346-350.182716-150.439507z" fill="#9DDCFC" p-id="13871"></path></svg>